<?xml version="1.0" encoding="UTF-8" standalone="no"?>
<svg
   xmlns:dc="http://purl.org/dc/elements/1.1/"
   xmlns:cc="http://creativecommons.org/ns#"
   xmlns:rdf="http://www.w3.org/1999/02/22-rdf-syntax-ns#"
   xmlns:svg="http://www.w3.org/2000/svg"
   xmlns="http://www.w3.org/2000/svg"
   xmlns:xlink="http://www.w3.org/1999/xlink"
   xmlns:sodipodi="http://sodipodi.sourceforge.net/DTD/sodipodi-0.dtd"
   xmlns:inkscape="http://www.inkscape.org/namespaces/inkscape"
   width="1000.0001"
   height="999.72742"
   id="svg2"
   version="1.1"
   inkscape:version="0.91 r13725"
   sodipodi:docname="Instagram_logo_2016.svg">
  <metadata
     id="metadata32">
    <rdf:RDF>
      <cc:Work
         rdf:about="">
        <dc:format>image/svg+xml</dc:format>
        <dc:type
           rdf:resource="http://purl.org/dc/dcmitype/StillImage" />
        <dc:title></dc:title>
      </cc:Work>
    </rdf:RDF>
  </metadata>
  <sodipodi:namedview
     pagecolor="#ffffff"
     bordercolor="#666666"
     borderopacity="1"
     objecttolerance="10"
     gridtolerance="10"
     guidetolerance="10"
     inkscape:pageopacity="0"
     inkscape:pageshadow="2"
     inkscape:window-width="1366"
     inkscape:window-height="705"
     id="namedview30"
     showgrid="false"
     fit-margin-top="0"
     fit-margin-left="0"
     fit-margin-right="0"
     fit-margin-bottom="0"
     inkscape:zoom="1.7878788"
     inkscape:cx="65.001443"
     inkscape:cy="64.989"
     inkscape:window-x="-8"
     inkscape:window-y="-8"
     inkscape:window-maximized="1"
     inkscape:current-layer="svg2" />
  <defs
     id="defs4">
    <linearGradient
       id="b">
      <stop
         offset="0"
         stop-color="#3771c8"
         id="stop7" />
      <stop
         stop-color="#3771c8"
         offset=".128"
         id="stop9" />
      <stop
         offset="1"
         stop-color="#60f"
         stop-opacity="0"
         id="stop11" />
    </linearGradient>
    <linearGradient
       id="a">
      <stop
         offset="0"
         stop-color="#fd5"
         id="stop14" />
      <stop
         offset=".1"
         stop-color="#fd5"
         id="stop16" />
      <stop
         offset=".5"
         stop-color="#ff543e"
         id="stop18" />
      <stop
         offset="1"
         stop-color="#c837ab"
         id="stop20" />
    </linearGradient>
    <radialGradient
       id="c"
       cx="158.429"
       cy="578.08801"
       r="65"
       xlink:href="#a"
       gradientUnits="userSpaceOnUse"
       gradientTransform="matrix(0,-15.243134,14.18118,0,-7932.3435,3491.6819)"
       fx="158.429"
       fy="578.08801" />
    <radialGradient
       id="d"
       cx="147.694"
       cy="473.45499"
       r="65"
       xlink:href="#b"
       gradientUnits="userSpaceOnUse"
       gradientTransform="matrix(1.3377485,6.6812052,-27.547128,5.5157321,12677.242,-3526.2062)"
       fx="147.694"
       fy="473.45499" />
  </defs>
  <path
     d="M 500.16321,0 C 291.41785,0 230.36779,0.21534 218.50079,1.19977 175.66269,4.76064 149.00617,11.50553 119.96547,25.96435 97.585069,37.07764 79.934542,49.95983 62.51474,68.01798 30.789936,100.95025 11.562783,141.46571 4.6025533,189.62588 1.2185742,213.0061 0.234144,217.77443 0.0341816,337.19813 c -0.0769086,39.8079 0,92.19805 0,162.46945 0,208.57617 0.2307258,269.5647 1.2305378,281.40863 3.4608877,41.68447 9.9981196,67.9103 23.8416706,96.59722 26.456564,54.91275 76.98552,96.13577 136.51279,111.51749 20.61151,5.30669 43.37646,8.22922 72.60173,9.61358 12.38229,0.53836 138.58933,0.9229 264.87327,0.9229 126.28395,0 252.5679,-0.15382 264.64255,-0.76909 33.83979,-1.592 53.48994,-4.22997 75.21662,-9.8443 59.91182,-15.45863 109.51787,-56.06638 136.5128,-111.74822 13.57437,-27.99473 20.45769,-55.22038 23.57249,-94.72834 0.6768,-8.61376 0.96136,-145.94948 0.96136,-283.10061 0,-137.17421 -0.30766,-274.25613 -0.98446,-282.86989 -3.15323,-40.1463 -10.03655,-67.14122 -24.0493,-95.67432 C 963.4684,97.63549 950.70157,80.19261 932.1666,62.3575 899.0882,30.76344 858.63427,11.53629 810.42795,4.58375 787.0708,1.20746 782.41783,0.20765 662.90184,0 L 500.16321,0 Z"
     id="path24"
     style="fill:url(#c)"
     inkscape:connector-curvature="0" />
  <path
     d="M 500.16321,0 C 291.41785,0 230.36779,0.21534 218.50079,1.19977 175.66269,4.76064 149.00617,11.50553 119.96547,25.96435 97.585069,37.07764 79.934542,49.95983 62.51474,68.01798 30.789936,100.95025 11.562783,141.46571 4.6025533,189.62588 1.2185742,213.0061 0.234144,217.77443 0.0341816,337.19813 c -0.0769086,39.8079 0,92.19805 0,162.46945 0,208.57617 0.2307258,269.5647 1.2305378,281.40863 3.4608877,41.68447 9.9981196,67.9103 23.8416706,96.59722 26.456564,54.91275 76.98552,96.13577 136.51279,111.51749 20.61151,5.30669 43.37646,8.22922 72.60173,9.61358 12.38229,0.53836 138.58933,0.9229 264.87327,0.9229 126.28395,0 252.5679,-0.15382 264.64255,-0.76909 33.83979,-1.592 53.48994,-4.22997 75.21662,-9.8443 59.91182,-15.45863 109.51787,-56.06638 136.5128,-111.74822 13.57437,-27.99473 20.45769,-55.22038 23.57249,-94.72834 0.6768,-8.61376 0.96136,-145.94948 0.96136,-283.10061 0,-137.17421 -0.30766,-274.25613 -0.98446,-282.86989 -3.15323,-40.1463 -10.03655,-67.14122 -24.0493,-95.67432 C 963.4684,97.63549 950.70157,80.19261 932.1666,62.3575 899.0882,30.76344 858.63427,11.53629 810.42795,4.58375 787.0708,1.20746 782.41783,0.20765 662.90184,0 L 500.16321,0 Z"
     id="path26"
     style="fill:url(#d)"
     inkscape:connector-curvature="0" />
  <path
     d="m 499.93249,130.74464 c -100.25807,0 -112.84032,0.43838 -152.21753,2.23035 -39.30031,1.79967 -66.12603,8.02157 -89.59854,17.15063 -24.28005,9.42899 -44.87618,22.042 -65.3954,42.56891 -20.5346,20.51922 -33.14761,41.11535 -42.60737,65.38771 -9.15213,23.4802 -15.38172,50.31362 -17.15062,89.59854 -1.76121,39.37721 -2.22266,51.96715 -2.22266,152.22522 0,100.25807 0.44607,112.80187 2.23035,152.17908 1.80735,39.3003 8.02926,66.12602 17.15062,89.59853 9.43669,24.28005 22.0497,44.87618 42.57661,65.3954 20.51153,20.5346 41.10765,33.17838 65.37232,42.60737 23.48789,9.12905 50.32131,15.35096 89.61392,17.15062 39.37721,1.79197 51.95177,2.23035 152.20215,2.23035 100.26576,0 112.80956,-0.43838 152.18677,-2.23035 39.3003,-1.79966 66.15679,-8.02157 89.64468,-17.15062 24.27236,-9.42899 44.83773,-22.07277 65.34925,-42.60737 20.5346,-20.51922 33.14762,-41.11535 42.60738,-65.38771 9.07521,-23.4802 15.30481,-50.31361 17.15062,-89.59853 1.7689,-39.37721 2.23035,-51.9287 2.23035,-152.18677 0,-100.25807 -0.46145,-112.84032 -2.23035,-152.21753 -1.84581,-39.30031 -8.07541,-66.12603 -17.15062,-89.59854 -9.45976,-24.28005 -22.07278,-44.87618 -42.60738,-65.3954 -20.5346,-20.5346 -41.0692,-33.14761 -65.37232,-42.56891 -23.53404,-9.12906 -50.37514,-15.35096 -89.67545,-17.15063 -39.37721,-1.79197 -51.91331,-2.23035 -152.20215,-2.23035 z m -33.11685,66.52596 c 9.82892,-0.0154 20.79609,0 33.11685,0 98.56608,0 110.2485,0.35378 149.17195,2.12267 35.99323,1.64585 55.52802,7.6601 68.54096,12.713 17.22753,6.69105 29.50983,14.68954 42.42279,27.61019 12.92065,12.92065 20.91914,25.22603 27.62557,42.45356 5.0529,12.99755 11.07484,32.53234 12.713,68.52557 1.76889,38.91576 2.15344,50.60587 2.15344,149.12581 0,98.51994 -0.38455,110.21005 -2.15344,149.1258 -1.64585,35.99324 -7.6601,55.52803 -12.713,68.52558 -6.69105,17.22753 -14.70492,29.49446 -27.62557,42.40741 -12.92065,12.92065 -25.18757,20.91915 -42.42279,27.6102 -12.99756,5.07596 -32.54773,11.07484 -68.54096,12.72068 -38.91576,1.7689 -50.60587,2.15344 -149.17195,2.15344 -98.57378,0 -110.25619,-0.38454 -149.17195,-2.15344 -35.99324,-1.66123 -55.52802,-7.67548 -68.54865,-12.72838 -17.22753,-6.69105 -29.53291,-14.68954 -42.45356,-27.61019 -12.92065,-12.92065 -20.91914,-25.19526 -27.62557,-42.43048 -5.0529,-12.99756 -11.07484,-32.53235 -12.713,-68.52558 -1.7689,-38.91576 -2.12268,-50.60587 -2.12268,-149.18733 0,-98.58146 0.35378,-110.21005 2.12268,-149.12581 1.64585,-35.99323 7.6601,-55.52802 12.713,-68.54095 6.69105,-17.22753 14.70492,-29.53291 27.62557,-42.45356 12.92065,-12.92065 25.22603,-20.91914 42.45356,-27.62557 13.01294,-5.07597 32.55541,-11.07485 68.54865,-12.72838 34.05513,-1.53817 47.25265,-1.99962 116.0551,-2.07653 z m 230.1721,61.29616 c -24.45694,0 -44.29936,19.81935 -44.29936,44.28398 0,24.45694 19.84242,44.29937 44.29936,44.29937 24.45694,0 44.29936,-19.84243 44.29936,-44.29937 0,-24.45694 -19.84242,-44.29936 -44.29936,-44.29936 z m -197.05525,51.7595 c -104.6957,0 -189.57974,84.88404 -189.57974,189.57974 0,104.6957 84.88404,189.54128 189.57974,189.54128 104.6957,0 189.54897,-84.84558 189.54897,-189.54128 0,-104.6957 -84.86097,-189.57974 -189.55666,-189.57974 z m 0,66.52595 c 67.95645,0 123.05378,55.08965 123.05378,123.05379 0,67.95645 -55.09733,123.05378 -123.05378,123.05378 -67.96415,0 -123.05379,-55.09733 -123.05379,-123.05378 0,-67.96414 55.08964,-123.05379 123.05379,-123.05379 z"
     id="path28"
     inkscape:connector-curvature="0"
     style="fill:#ffffff" />
</svg>
