<?xml version="1.0" encoding="UTF-8" standalone="no"?>
<!-- Generator: Adobe Illustrator 16.0.3, SVG Export Plug-In . SVG Version: 6.00 Build 0)  -->

<svg
   xmlns:dc="http://purl.org/dc/elements/1.1/"
   xmlns:cc="http://creativecommons.org/ns#"
   xmlns:rdf="http://www.w3.org/1999/02/22-rdf-syntax-ns#"
   xmlns:svg="http://www.w3.org/2000/svg"
   xmlns="http://www.w3.org/2000/svg"
   xmlns:xlink="http://www.w3.org/1999/xlink"
   xmlns:sodipodi="http://sodipodi.sourceforge.net/DTD/sodipodi-0.dtd"
   xmlns:inkscape="http://www.inkscape.org/namespaces/inkscape"
   version="1.1"
   id="Layer_1"
   x="0px"
   y="0px"
   width="741.83496"
   height="740.50275"
   viewBox="0 0 741.83496 740.50275"
   enable-background="new 0 0 250 250"
   xml:space="preserve"
   inkscape:version="0.91 r13725"
   sodipodi:docname="Instagram Icon inverted.svg"><metadata
   id="metadata5035"><rdf:RDF><cc:Work
       rdf:about=""><dc:format>image/svg+xml</dc:format><dc:type
         rdf:resource="http://purl.org/dc/dcmitype/StillImage" /><dc:title></dc:title></cc:Work></rdf:RDF></metadata><defs
   id="defs5033"><linearGradient
     inkscape:collect="always"
     id="linearGradient6172"><stop
       style="stop-color:#fed576;stop-opacity:1"
       offset="0"
       id="stop6174" /><stop
       id="stop6180"
       offset="0.26335424"
       style="stop-color:#f47133;stop-opacity:1" /><stop
       style="stop-color:#bc3081;stop-opacity:1"
       offset="0.60907197"
       id="stop6182" /><stop
       style="stop-color:#4c63d2;stop-opacity:1"
       offset="1"
       id="stop6176" /></linearGradient><radialGradient
     inkscape:collect="always"
     xlink:href="#linearGradient6172"
     id="radialGradient6178"
     cx="673.84521"
     cy="1118.7769"
     fx="673.84521"
     fy="1118.7769"
     r="646.02502"
     gradientTransform="matrix(2.3933999,-0.40184959,0.2443697,1.4527053,-1767.9828,-560.00245)"
     gradientUnits="userSpaceOnUse" /><radialGradient
     inkscape:collect="always"
     xlink:href="#linearGradient6172"
     id="radialGradient6202"
     gradientUnits="userSpaceOnUse"
     gradientTransform="matrix(2.3933999,-0.40184959,0.2443697,1.4527053,-1767.9828,-560.00245)"
     cx="673.84521"
     cy="1118.7769"
     fx="673.84521"
     fy="1118.7769"
     r="646.02502" /><radialGradient
     inkscape:collect="always"
     xlink:href="#linearGradient6172"
     id="radialGradient6209"
     gradientUnits="userSpaceOnUse"
     gradientTransform="matrix(2.3933999,-0.40184959,0.2443697,1.4527053,-1767.9828,-560.00245)"
     cx="673.84521"
     cy="1118.7769"
     fx="673.84521"
     fy="1118.7769"
     r="646.02502" /></defs><sodipodi:namedview
   pagecolor="#ffffff"
   bordercolor="#666666"
   borderopacity="1"
   objecttolerance="10"
   gridtolerance="10"
   guidetolerance="10"
   inkscape:pageopacity="0"
   inkscape:pageshadow="2"
   inkscape:window-width="1366"
   inkscape:window-height="705"
   id="namedview5031"
   showgrid="false"
   inkscape:zoom="0.3337544"
   inkscape:cx="640.43701"
   inkscape:cy="207.65183"
   inkscape:window-x="-8"
   inkscape:window-y="-8"
   inkscape:window-maximized="1"
   inkscape:current-layer="Layer_1"
   fit-margin-top="0"
   fit-margin-left="0"
   fit-margin-right="0"
   fit-margin-bottom="0" />


<path
   style="fill:url(#radialGradient6202);fill-opacity:1;stroke:none;stroke-width:13.30000019;stroke-miterlimit:4;stroke-dasharray:none"
   d="m 371.24609,181.25305 c -6.52426,0 -12.97482,0.33458 -19.33398,0.98438 -6.35916,0.6498 -12.62737,1.61554 -18.78906,2.88281 -6.1617,1.26728 -12.21656,2.83507 -18.14844,4.6875 -5.93188,1.85243 -11.74045,3.98928 -17.41016,6.39453 -5.6697,2.40526 -11.20099,5.07815 -16.57617,8.00391 -5.37517,2.92576 -10.59428,6.10364 -15.64258,9.51758 -5.04829,3.41393 -9.92617,7.06575 -14.61523,10.93554 -4.68906,3.86979 -9.18886,7.95864 -13.48633,12.25196 -4.29747,4.29332 -8.3921,8.79008 -12.26562,13.47461 -3.87353,4.68452 -7.52613,9.5562 -10.94336,14.5996 -3.41723,5.04341 -6.59877,10.25894 -9.52735,15.62891 -2.92857,5.36997 -5.60415,10.89439 -8.01172,16.55859 -2.40756,5.66421 -4.54813,11.46843 -6.40234,17.39454 -1.85421,5.92611 -3.42291,11.97516 -4.69141,18.13086 -1.26849,6.15569 -2.23629,12.41657 -2.88671,18.76953 -0.65043,6.35295 -0.98243,12.79656 -0.98243,19.31445 0,6.51789 0.332,12.96151 0.98243,19.31445 0.65042,6.35295 1.61822,12.61581 2.88671,18.77149 1.2685,6.15567 2.8372,12.20478 4.69141,18.13086 1.85421,5.92608 3.99478,11.73036 6.40234,17.39453 2.40757,5.66416 5.08315,11.18867 8.01172,16.55859 2.92858,5.36993 6.11012,10.58359 9.52735,15.62696 3.41723,5.04336 7.06983,9.91708 10.94336,14.60156 3.87352,4.68448 7.96815,9.18133 12.26562,13.47461 4.29747,4.29327 8.79727,8.38221 13.48633,12.25195 4.68906,3.86974 9.56694,7.5197 14.61523,10.93359 5.0483,3.41389 10.26741,6.59187 15.64258,9.51758 5.37518,2.92572 10.90647,5.59869 16.57617,8.00391 5.66971,2.40522 11.47828,4.54213 17.41016,6.39453 5.93188,1.8524 11.98674,3.42025 18.14844,4.6875 6.16169,1.26725 12.4299,2.23498 18.78906,2.88477 6.35916,0.64978 12.80972,0.98242 19.33398,0.98242 6.52427,0 12.97287,-0.33264 19.33204,-0.98242 6.35916,-0.64979 12.62735,-1.61752 18.78906,-2.88477 6.16171,-1.26725 12.21849,-2.8351 18.15039,-4.6875 5.9319,-1.8524 11.74042,-3.98931 17.41015,-6.39453 5.66974,-2.40522 11.19901,-5.07819 16.57422,-8.00391 5.37522,-2.92571 10.5962,-6.10369 15.64454,-9.51758 5.04833,-3.41389 9.92417,-7.06385 14.61328,-10.93359 4.6891,-3.86974 9.19076,-7.95868 13.48828,-12.25195 4.29751,-4.29328 8.39205,-8.79013 12.26562,-13.47461 3.87357,-4.68448 7.52609,-9.5582 10.94336,-14.60156 3.41727,-5.04337 6.59873,-10.25703 9.52735,-15.62696 2.92861,-5.36992 5.60411,-10.89443 8.01171,-16.55859 2.40761,-5.66417 4.54811,-11.46845 6.40235,-17.39453 1.85423,-5.92608 3.42289,-11.97519 4.6914,-18.13086 1.26852,-6.15568 2.23629,-12.41854 2.88672,-18.77149 0.65044,-6.35294 0.98438,-12.79656 0.98438,-19.31445 0,-6.51789 -0.33394,-12.9615 -0.98438,-19.31445 -0.65043,-6.35296 -1.6182,-12.61384 -2.88672,-18.76953 -1.26851,-6.1557 -2.83717,-12.20475 -4.6914,-18.13086 -1.85424,-5.92611 -3.99474,-11.73033 -6.40235,-17.39454 -2.4076,-5.6642 -5.0831,-11.18862 -8.01171,-16.55859 -2.92862,-5.36997 -6.11008,-10.5855 -9.52735,-15.62891 -3.41727,-5.0434 -7.06979,-9.91508 -10.94336,-14.5996 -3.87357,-4.68453 -7.96811,-9.18129 -12.26562,-13.47461 -4.29752,-4.29332 -8.79918,-8.38217 -13.48828,-12.25196 -4.68911,-3.86979 -9.56495,-7.52161 -14.61328,-10.93554 -5.04834,-3.41394 -10.26932,-6.59182 -15.64454,-9.51758 -5.37521,-2.92576 -10.90448,-5.59865 -16.57422,-8.00391 -5.66973,-2.40525 -11.47825,-4.5421 -17.41015,-6.39453 -5.9319,-1.85243 -11.98868,-3.42022 -18.15039,-4.6875 -6.16171,-1.26727 -12.4299,-2.23301 -18.78906,-2.88281 -6.35917,-0.6498 -12.80777,-0.98438 -19.33204,-0.98438 z m 0,65.41797 c 4.3125,0 8.5708,0.21575 12.76563,0.63672 4.19483,0.42098 8.3259,1.04742 12.38281,1.86914 4.05692,0.82172 8.03875,1.83878 11.9375,3.04102 3.89876,1.20224 7.71325,2.58981 11.4336,4.15234 3.72034,1.56253 7.34745,3.30053 10.86914,5.20313 3.52168,1.90259 6.93941,3.96897 10.24218,6.1914 3.30278,2.22244 6.49107,4.60101 9.55469,7.12305 3.06362,2.52204 6.00243,5.18881 8.80664,7.99023 2.80421,2.80143 5.47349,5.7363 7.99805,8.79688 2.52455,3.06058 4.90425,6.24541 7.1289,9.54492 2.22466,3.29951 4.29473,6.71422 6.19922,10.23242 1.9045,3.51821 3.64294,7.14075 5.20704,10.85742 1.56409,3.71668 2.9528,7.52696 4.15624,11.42188 1.20345,3.89492 2.22238,7.87479 3.04493,11.92773 0.82254,4.05294 1.44969,8.18037 1.87109,12.3711 0.4214,4.19073 0.63672,8.44366 0.63672,12.75195 0,4.30829 -0.21532,8.56318 -0.63672,12.75391 -0.4214,4.19072 -1.04855,8.31815 -1.87109,12.37109 -0.82255,4.05294 -1.84148,8.03281 -3.04493,11.92773 -1.20344,3.89493 -2.59215,7.7052 -4.15624,11.42188 -1.5641,3.71668 -3.30254,7.33922 -5.20704,10.85742 -1.90449,3.51821 -3.97456,6.93096 -6.19922,10.23047 -2.22465,3.29951 -4.60435,6.4863 -7.1289,9.54688 -2.52456,3.06057 -5.19384,5.99544 -7.99805,8.79687 -2.80421,2.80143 -5.74302,5.46819 -8.80664,7.99023 -3.06362,2.52205 -6.25191,4.90062 -9.55469,7.12305 -3.30277,2.22244 -6.7205,4.28881 -10.24218,6.19141 -3.52169,1.90259 -7.1488,3.64059 -10.86914,5.20312 -3.72035,1.56254 -7.53484,2.95011 -11.4336,4.15235 -3.89875,1.20224 -7.88058,2.21929 -11.9375,3.04101 -4.05691,0.82172 -8.18798,1.44817 -12.38281,1.86914 -4.19483,0.42098 -8.45313,0.63672 -12.76563,0.63672 -4.3125,0 -8.57275,-0.21574 -12.76757,-0.63672 -4.19483,-0.42097 -8.32396,-1.04742 -12.38086,-1.86914 -4.0569,-0.82172 -8.04073,-1.83877 -11.93946,-3.04101 -3.89873,-1.20224 -7.71328,-2.58981 -11.43359,-4.15235 -3.72031,-1.56253 -7.34554,-3.30053 -10.86719,-5.20312 -3.52164,-1.9026 -6.93945,-3.96897 -10.24219,-6.19141 -3.30273,-2.22243 -6.49111,-4.601 -9.55468,-7.12305 -3.06358,-2.52204 -6.00248,-5.1888 -8.80664,-7.99023 -2.80417,-2.80143 -5.47354,-5.7363 -7.99805,-8.79687 -2.52451,-3.06058 -4.9043,-6.24737 -7.12891,-9.54688 -2.2246,-3.29951 -4.29476,-6.71226 -6.19922,-10.23047 -1.90445,-3.5182 -3.64296,-7.14074 -5.20703,-10.85742 -1.56406,-3.71668 -2.95283,-7.52695 -4.15625,-11.42188 -1.20341,-3.89492 -2.22239,-7.87479 -3.04492,-11.92773 -0.82252,-4.05294 -1.44971,-8.18037 -1.87109,-12.37109 -0.42139,-4.19073 -0.63672,-8.44562 -0.63672,-12.75391 0,-4.30829 0.21533,-8.56122 0.63672,-12.75195 0.42138,-4.19073 1.04857,-8.31816 1.87109,-12.3711 0.82253,-4.05294 1.84151,-8.03281 3.04492,-11.92773 1.20342,-3.89492 2.59219,-7.7052 4.15625,-11.42188 1.56407,-3.71667 3.30258,-7.33921 5.20703,-10.85742 1.90446,-3.5182 3.97462,-6.93291 6.19922,-10.23242 2.22461,-3.29951 4.6044,-6.48434 7.12891,-9.54492 2.52451,-3.06058 5.19388,-5.99545 7.99805,-8.79688 2.80416,-2.80142 5.74306,-5.46819 8.80664,-7.99023 3.06357,-2.52204 6.25195,-4.90061 9.55468,-7.12305 3.30274,-2.22243 6.72055,-4.28881 10.24219,-6.1914 3.52165,-1.9026 7.14688,-3.6406 10.86719,-5.20313 3.72031,-1.56253 7.53486,-2.9501 11.43359,-4.15234 3.89873,-1.20224 7.88256,-2.2193 11.93946,-3.04102 4.0569,-0.82172 8.18603,-1.44816 12.38086,-1.86914 4.19482,-0.42097 8.45507,-0.63672 12.76757,-0.63672 z"
   id="path6205"
   inkscape:connector-curvature="0" /><path
   style="fill:url(#radialGradient6209);fill-opacity:1;stroke:none;stroke-width:13.30000019;stroke-miterlimit:4;stroke-dasharray:none"
   d="m 568.65039,127.33899 a 45.17538,45.474062 0 0 0 -4.50976,0.22852 45.17538,45.474062 0 0 0 -4.46485,0.67968 45.17538,45.474062 0 0 0 -4.375,1.12305 45.17538,45.474062 0 0 0 -4.24219,1.55859 45.17538,45.474062 0 0 0 -4.0664,1.97852 45.17538,45.474062 0 0 0 -3.84961,2.375 45.17538,45.474062 0 0 0 -3.5957,2.75195 45.17538,45.474062 0 0 0 -3.30274,3.09766 45.17538,45.474062 0 0 0 -2.98047,3.41601 45.17538,45.474062 0 0 0 -2.62695,3.69727 45.17538,45.474062 0 0 0 -2.24609,3.94141 45.17538,45.474062 0 0 0 -1.84571,4.15039 45.17538,45.474062 0 0 0 -1.42383,4.3125 45.17538,45.474062 0 0 0 -0.98828,4.43554 45.17538,45.474062 0 0 0 -0.54492,4.51172 45.17538,45.474062 0 0 0 -0.11328,3.2168 45.17538,45.474062 0 0 0 0.22656,4.54102 45.17538,45.474062 0 0 0 0.67383,4.49414 45.17538,45.474062 0 0 0 1.11719,4.40429 45.17538,45.474062 0 0 0 1.54883,4.26953 45.17538,45.474062 0 0 0 1.96484,4.09375 45.17538,45.474062 0 0 0 2.35937,3.875 45.17538,45.474062 0 0 0 2.73243,3.61719 45.17538,45.474062 0 0 0 3.07812,3.32617 45.17538,45.474062 0 0 0 3.39258,3 45.17538,45.474062 0 0 0 3.67383,2.64454 45.17538,45.474062 0 0 0 3.91797,2.26171 45.17538,45.474062 0 0 0 4.12109,1.85743 45.17538,45.474062 0 0 0 4.28516,1.43359 45.17538,45.474062 0 0 0 4.40625,0.99414 45.17538,45.474062 0 0 0 4.48242,0.54883 45.17538,45.474062 0 0 0 3.19531,0.11328 45.17538,45.474062 0 0 0 4.50977,-0.22656 45.17538,45.474062 0 0 0 4.46484,-0.67969 45.17538,45.474062 0 0 0 4.375,-1.125 45.17538,45.474062 0 0 0 4.24219,-1.55859 45.17538,45.474062 0 0 0 4.0664,-1.97657 45.17538,45.474062 0 0 0 3.84961,-2.37695 45.17538,45.474062 0 0 0 3.59571,-2.75 45.17538,45.474062 0 0 0 3.30273,-3.09961 45.17538,45.474062 0 0 0 2.98047,-3.41406 45.17538,45.474062 0 0 0 2.62695,-3.69727 45.17538,45.474062 0 0 0 2.2461,-3.94336 45.17538,45.474062 0 0 0 1.8457,-4.14843 45.17538,45.474062 0 0 0 1.42383,-4.31446 45.17538,45.474062 0 0 0 0.98828,-4.43554 45.17538,45.474062 0 0 0 0.54492,-4.51172 45.17538,45.474062 0 0 0 0.11328,-3.2168 45.17538,45.474062 0 0 0 -0.22656,-4.53906 45.17538,45.474062 0 0 0 -0.67383,-4.49414 45.17538,45.474062 0 0 0 -1.11719,-4.4043 45.17538,45.474062 0 0 0 -1.54882,-4.26953 45.17538,45.474062 0 0 0 -1.96485,-4.09375 45.17538,45.474062 0 0 0 -2.35937,-3.875 45.17538,45.474062 0 0 0 -2.73438,-3.61914 45.17538,45.474062 0 0 0 -3.07617,-3.32617 45.17538,45.474062 0 0 0 -3.39258,-3 45.17538,45.474062 0 0 0 -3.67383,-2.64258 45.17538,45.474062 0 0 0 -3.91796,-2.26172 45.17538,45.474062 0 0 0 -4.1211,-1.85742 45.17538,45.474062 0 0 0 -4.28515,-1.4336 45.17538,45.474062 0 0 0 -4.40625,-0.99609 45.17538,45.474062 0 0 0 -4.48243,-0.54687 45.17538,45.474062 0 0 0 -3.19531,-0.11524 z"
   id="path6212"
   inkscape:connector-curvature="0" /><path
   style="fill:url(#radialGradient6178);fill-opacity:1;stroke:none;stroke-width:13.30000019;stroke-miterlimit:4;stroke-dasharray:none"
   d="m 335.26953,0.00696365 c -20.63249,-0.0334 -39.04812,0.052 -55.58984,0.28711 -16.54173,0.23514 -31.20836,0.62042 -44.3457,1.18749995 -13.13735,0.56708 -24.74472,1.31491 -35.16407,2.27734 -5.20967,0.48122 -10.12238,1.01744 -14.78125,1.60938 -4.65887,0.59194 -9.06394,1.24058 -13.25781,1.95117 -4.19387,0.71059 -8.17753,1.48315 -11.99219,2.32031 -3.81466,0.8371604 -7.46117,1.7392804 -10.98242,2.7109404 -3.52125,0.97166 -6.91683,2.01287 -10.23047,3.12695 -3.31364,1.11409 -6.5445,2.30002 -9.73633,3.56446 -6.38366,2.52887 -12.61028,5.3671 -19.02148,8.54492 -4.93303,2.44513 -9.49217,4.92606 -13.82227,7.55078 -4.33009,2.62471 -8.4313,5.39297 -12.44921,8.41601 -4.01792,3.02305 -7.9508,6.29932 -11.94727,9.93946 -3.99647,3.64014 -8.05649,7.6451 -12.32227,12.12109 -5.32972,5.59233 -9.96328,10.80691 -14.07422,15.91992 -2.05546,2.55651 -3.97967,5.08698 -5.79492,7.62696 -1.81524,2.53997 -3.52261,5.08932 -5.14062,7.68164 -1.61801,2.59231 -3.14757,5.227876 -4.61133,7.941396 -1.46376,2.71353 -2.8604,5.50461 -4.21289,8.40821 -2.70497,5.80719 -5.23025,12.06423 -7.74805,19.04492 -1.84642,5.11928 -3.51439,10.27462 -5.01758,15.67969 -1.50319,5.40507 -2.84307,11.05895 -4.03515,17.17382 -1.19208,6.11487 -2.23535,12.69078 -3.14844,19.93946 -0.91309,7.24868 -1.6951,15.17007 -2.36133,23.97656 -0.66622,8.80649 -1.21648,18.49879 -1.66797,29.28711 -0.45148,10.78832 -0.8034,22.67304 -1.07226,35.86719 -0.26887,13.19415 -0.45585,27.69671 -0.57422,43.7207 C 0.0496,333.90595 0,351.45178 0,370.72962 c 7e-4,28.95063 0.15822,54.45412 0.48828,76.84961 0.33006,22.39548 0.83187,41.68258 1.51953,58.20117 0.34383,8.25929 0.73335,15.8269 1.17188,22.74414 0.43853,6.91724 0.92613,13.18378 1.46289,18.84375 0.53675,5.65996 1.12321,10.71174 1.76172,15.19922 0.63851,4.48747 1.32846,8.41078 2.07226,11.81054 1.54719,7.07196 3.32488,13.91182 5.33399,20.52344 2.0091,6.61162 4.25087,12.99582 6.72656,19.1543 2.47569,6.15847 5.18587,12.09217 8.13281,17.80468 2.94694,5.71252 6.12988,11.20282 9.55274,16.47657 3.42285,5.27374 7.08484,10.32971 10.98828,15.17187 3.90343,4.84217 8.04882,9.4709 12.4375,13.88867 4.38868,4.41777 9.01984,8.62444 13.89844,12.625 4.87859,4.00057 10.00377,7.79422 15.37695,11.38477 4.92771,3.29286 9.80013,6.31052 14.71289,9.07617 4.91276,2.76565 9.8658,5.27991 14.95312,7.56445 5.08733,2.28455 10.3103,4.33993 15.76172,6.18946 5.45143,1.84953 11.13167,3.4925 17.13672,4.95312 6.00505,1.46063 12.33383,2.73961 19.08203,3.85742 6.7482,1.11782 13.91483,2.07539 21.59571,2.89649 7.68087,0.8211 15.8766,1.50568 24.67968,2.07617 8.80309,0.57049 18.21527,1.0266 28.33008,1.39258 15.62058,0.56517 39.26688,0.89559 66.53711,1.02539 27.27023,0.1298 58.16435,0.0587 88.27734,-0.17773 30.113,-0.23644 59.44488,-0.63835 83.59376,-1.17188 12.07443,-0.26676 22.85303,-0.56646 31.78515,-0.89453 8.93212,-0.32807 16.0181,-0.68372 20.70703,-1.06445 4.44558,-0.36098 8.76955,-0.78997 12.99024,-1.29102 4.22068,-0.50105 8.33801,-1.07482 12.36718,-1.72461 4.02918,-0.64979 7.97075,-1.37638 11.8418,-2.18359 3.87105,-0.80721 7.67167,-1.69467 11.41797,-2.66797 3.7463,-0.9733 7.43881,-2.03162 11.09375,-3.17969 3.65494,-1.14807 7.27217,-2.38724 10.86914,-3.71875 3.59697,-1.33151 7.17372,-2.75567 10.74609,-4.2793 3.57238,-1.52362 7.13954,-3.14668 10.72071,-4.87109 5.49617,-2.64652 9.92264,-4.85502 13.80468,-7.01367 3.88205,-2.15865 7.21966,-4.26697 10.53711,-6.71094 3.31745,-2.44397 6.61558,-5.22408 10.41797,-8.72656 3.8024,-3.50249 8.11039,-7.72635 13.44727,-13.06055 4.68875,-4.68637 8.6425,-8.76062 12.05469,-12.46484 3.41218,-3.70422 6.28276,-7.03998 8.80273,-10.25196 2.51998,-3.21197 4.68904,-6.30013 6.70117,-9.50976 2.01213,-3.20963 3.86721,-6.53913 5.75586,-10.23633 2.84174,-5.56286 5.37333,-10.71157 7.63672,-15.68164 2.26339,-4.97007 4.25821,-9.76143 6.02148,-14.61133 1.76328,-4.84989 3.29532,-9.75859 4.63672,-14.96094 1.3414,-5.20234 2.49248,-10.69915 3.49024,-16.72656 0.99776,-6.02741 1.84185,-12.58506 2.57422,-19.91015 0.73236,-7.3251 1.35323,-15.41827 1.89843,-24.51368 0.5452,-9.0954 1.0149,-19.19291 1.45118,-30.53125 0.43627,-11.33833 0.83855,-23.91681 1.24414,-37.9707 0.39135,-13.56029 0.68564,-27.757 0.88867,-42.2793 0.20302,-14.5223 0.31418,-29.3694 0.3418,-44.23242 0.0552,-29.72604 -0.22605,-59.51382 -0.79493,-86.875 -0.28443,-13.68058 -0.64141,-26.75467 -1.0625,-38.91211 -0.42108,-12.15743 -0.90635,-23.39716 -1.45117,-33.41015 -0.54482,-10.01299 -1.14905,-18.79962 -1.80469,-26.04688 -0.65563,-7.24726 -1.36366,-12.95617 -2.11718,-16.8164 -0.84426,-4.32501 -1.7724,-8.56762 -2.78516,-12.73047 -1.01276,-4.16286 -2.10984,-8.24553 -3.29101,-12.2461 -1.18118,-4.00056 -2.44739,-7.91966 -3.79688,-11.75781 -1.34949,-3.83815 -2.78307,-7.59588 -4.30078,-11.27148 -1.51771,-3.67561 -3.11885,-7.26832 -4.80469,-10.78125 -1.68584,-3.51293 -3.45667,-6.9448 -5.31055,-10.29493 -1.85388,-3.350116 -3.79067,-6.619436 -5.8125,-9.806636 -2.02182,-3.18719 -4.12868,-6.29227 -6.31836,-9.3164 -2.18967,-3.02414 -4.46288,-5.96718 -6.82031,-8.82813 -2.35743,-2.86095 -4.79912,-5.64026 -7.32422,-8.33789 -2.52509,-2.69763 -5.1335,-5.31347 -7.82617,-7.84765 -2.69266,-2.53419 -5.46798,-4.98682 -8.32812,-7.35743 -2.86014,-2.3706 -5.80451,-4.65833 -8.83203,-6.86523 -3.02753,-2.2069 -6.13918,-4.33193 -9.33399,-6.375 -3.19481,-2.04307 -6.47197,-4.00566 -9.83398,-5.88477 -3.36201,-1.8791 -6.80878,-3.67561 -10.33789,-5.39062 -5.80274,-2.81991 -11.1711,-5.32159 -16.4375,-7.54297 -5.26641,-2.22138 -10.43065,-4.16342 -15.82227,-5.86328 -5.39162,-1.69986 -11.01107,-3.15675 -17.18945,-4.4121104 -6.17839,-1.25536 -12.91627,-2.30744 -20.54297,-3.19531 -7.6267,-0.88788 -16.14235,-1.61158 -25.87891,-2.20899 -9.73656,-0.59741 -20.6932,-1.06917 -33.20117,-1.45312 -12.50797,-0.38396 -26.56688,-0.68022 -42.50781,-0.92774 -15.94093,-0.24751995 -33.76339,-0.44666995 -53.79883,-0.63475995 -25.40964,-0.23855 -48.26009,-0.39042 -68.89258,-0.42383 z m 35.7793,65.35937035 c 35.26848,-0.007 70.56288,0.18056 99.34766,0.56446 14.39238,0.19195 27.15774,0.43241 37.47851,0.72265 10.32077,0.29025 18.19714,0.63065 22.8125,1.01953 6.01255,0.50662 11.74325,1.13753 17.21875,1.90235 5.4755,0.76481 10.69553,1.66347 15.68555,2.70703 4.99002,1.04356 9.75053,2.23136 14.30664,3.57422 4.55611,1.34285 8.90826,2.84121 13.08203,4.5039 4.17377,1.6627 8.16871,3.48912 12.01172,5.49219 3.843,2.00308 7.53384,4.18288 11.09765,6.54688 3.56382,2.364 7.00171,4.91273 10.33789,7.658196 3.33619,2.74547 6.57034,5.6865 9.73047,8.83399 3.3332,3.31984 6.40901,6.69842 9.24805,10.1914 2.83904,3.49299 5.4424,7.10168 7.82617,10.88281 2.38377,3.78114 4.54825,7.73369 6.51563,11.91797 1.96738,4.18428 3.7363,8.6003 5.32617,13.30274 1.58987,4.70243 3.00071,9.69175 4.25195,15.02734 1.25124,5.33559 2.34343,11.01586 3.29492,17.09961 0.9515,6.08375 1.7625,12.57066 2.45313,19.51758 0.69063,6.94691 1.26182,14.35422 1.73047,22.27929 0.37606,6.35801 0.70271,14.74544 0.98242,24.6543 0.27971,9.90887 0.5115,21.33987 0.69531,33.7832 0.36764,24.88667 0.5444,53.82575 0.53125,82.75196 -0.0131,28.92621 -0.21526,57.8392 -0.60547,82.67383 -0.1951,12.41731 -0.43789,23.81571 -0.72656,33.68554 -0.28867,9.86984 -0.62408,18.21161 -1.00586,24.51758 -0.69452,11.47224 -1.42262,21.11625 -2.30078,29.50977 -0.43908,4.19676 -0.91514,8.08117 -1.44336,11.72461 -0.52821,3.64343 -1.10969,7.04689 -1.75586,10.28125 -0.64616,3.23435 -1.35746,6.30002 -2.15039,9.26953 -0.79293,2.96951 -1.66625,5.8425 -2.63476,8.6914 -0.96852,2.84891 -2.03217,5.67239 -3.20508,8.54493 -1.17291,2.87253 -2.45521,5.79357 -3.86133,8.83398 -1.204,2.60334 -2.47417,5.13534 -3.8125,7.59766 -1.33833,2.46232 -2.74569,4.8549 -4.2207,7.17773 -1.47502,2.32283 -3.01875,4.57685 -4.63282,6.76172 -1.61406,2.18486 -3.29727,4.30118 -5.05273,6.34961 -1.75546,2.04843 -3.5832,4.02789 -5.48242,5.9414 -1.89922,1.91352 -3.87068,3.7609 -5.91602,5.54102 -2.04533,1.78013 -4.16361,3.49432 -6.35742,5.14258 -2.19381,1.64826 -4.46396,3.23012 -6.80859,4.74805 -2.34464,1.51792 -4.76391,2.97026 -7.26172,4.35937 -2.49782,1.38912 -5.07321,2.71473 -7.72657,3.97656 -2.65335,1.26183 -5.38601,2.46159 -8.19726,3.59766 -2.81126,1.13607 -5.70232,2.20887 -8.67383,3.2207 -5.94302,2.02368 -12.20846,3.80005 -18.80664,5.33594 -6.59818,1.53589 -13.52859,2.83227 -20.80078,3.89258 -2.68271,0.39115 -8.85737,0.75948 -17.69727,1.10156 -8.83989,0.34208 -20.34547,0.65629 -33.68945,0.9375 -26.68796,0.56243 -60.72994,0.99204 -95.51562,1.24024 -34.78569,0.24819 -70.31407,0.31664 -99.97266,0.15624 -14.8293,-0.0802 -28.1919,-0.21793 -39.25977,-0.41796 -11.06786,-0.20004 -19.8408,-0.46325 -25.49414,-0.79493 -6.71486,-0.39395 -12.96048,-0.82891 -18.79687,-1.32031 -5.8364,-0.49139 -11.26424,-1.03864 -16.34766,-1.6582 -5.08342,-0.61957 -9.8214,-1.31138 -14.27734,-2.08984 -4.45594,-0.77847 -8.63003,-1.6452 -12.58399,-2.61329 -3.95395,-0.96808 -7.68816,-2.03813 -11.26562,-3.22656 -3.57746,-1.18843 -6.99776,-2.49408 -10.32422,-3.93359 -3.32646,-1.43951 -6.55881,-3.01307 -9.75977,-4.73438 -3.20096,-1.72131 -6.37131,-3.59116 -9.57226,-5.625 -2.41779,-1.53623 -4.75069,-3.11344 -7.00195,-4.73633 -2.25127,-1.62288 -4.4201,-3.2901 -6.50977,-5.00976 -2.08967,-1.71966 -4.1002,-3.4918 -6.0332,-5.31836 -1.93301,-1.82656 -3.78905,-3.70876 -5.57032,-5.65234 -1.78126,-1.94359 -3.48663,-3.94685 -5.12109,-6.01758 -1.63446,-2.07074 -3.19687,-4.20801 -4.68945,-6.41602 -1.49258,-2.208 -2.91585,-4.48835 -4.27149,-6.84375 -1.35563,-2.3554 -2.64357,-4.78591 -3.86718,-7.29883 -1.22362,-2.51291 -2.38395,-5.1085 -3.48047,-7.78906 -1.09653,-2.68056 -2.12915,-5.44636 -3.10352,-8.30469 -1.94873,-5.71665 -3.65877,-11.79865 -5.14844,-18.28711 -1.48966,-6.48846 -2.76003,-13.38335 -3.83007,-20.72461 -1.07004,-7.34125 -1.93906,-15.12925 -2.62891,-23.40429 -0.50815,-6.09556 -0.91258,-15.59313 -1.2207,-27.5918 -0.30813,-11.99866 -0.52068,-26.49944 -0.64649,-42.59961 -0.25161,-32.20033 -0.15659,-70.80095 0.21485,-108.59765 0.37143,-37.79671 1.01825,-74.78932 1.87109,-103.76954 0.42642,-14.4901 0.90557,-26.97697 1.42578,-36.56054 0.26011,-4.79179 0.53031,-8.85663 0.81055,-12.08399 0.28023,-3.22735 0.56904,-5.61697 0.86719,-7.05468 0.97953,-4.72334 1.96603,-9.11635 2.98437,-13.23047 1.01834,-4.11413 2.06981,-7.94939 3.17773,-11.55664 1.10792,-3.60726 2.2732,-6.98673 3.52149,-10.18946 1.24829,-3.20272 2.58009,-6.22838 4.01953,-9.1289 1.43944,-2.90053 2.98659,-5.67629 4.66797,-8.37696 1.68138,-2.70066 3.49659,-5.32655 5.4707,-7.92968 1.97411,-2.60314 4.10621,-5.18307 6.42383,-7.79102 2.31762,-2.60795 4.81934,-5.24389 7.53125,-7.95898 3.29219,-3.29604 6.56513,-6.33422 9.87109,-9.136716 3.30596,-2.80251 6.64677,-5.36842 10.07618,-7.72071 3.4294,-2.35228 6.94685,-4.49016 10.60937,-6.43554 3.66252,-1.94539 7.46929,-3.69945 11.47461,-5.28125 4.00532,-1.5818 8.21019,-2.99239 12.66797,-4.25391 4.45778,-1.26152 9.16758,-2.37286 14.1875,-3.35742 5.01992,-0.98456 10.34928,-1.84284 16.04101,-2.59375 5.69174,-0.75091 11.74748,-1.39451 18.22071,-1.95508 4.51242,-0.39077 12.29744,-0.7348 22.54101,-1.0293 10.24357,-0.29449 22.94424,-0.5404 37.28516,-0.73828 28.68184,-0.39576 63.92488,-0.59818 99.19336,-0.60547 z"
   id="path6188"
   inkscape:connector-curvature="0" /></svg>